<svg id="Layer_1" data-name="Layer 1" xmlns="http://www.w3.org/2000/svg" viewBox="0 0 510.23 168.17"><defs><style>.cls-1{fill:#ff4655;}.cls-2{fill:#fff;}</style></defs><title>valorantStatsLogo</title><rect class="cls-1" x="30.61" y="63.4" width="479.62" height="104.77"/><path class="cls-2" d="M197.56,103.64a18.93,18.93,0,0,1,1.9-8.46,20.81,20.81,0,0,1,5.15-6.7,25.63,25.63,0,0,1,16.77-6.13A30.16,30.16,0,0,1,234.55,85,23.76,23.76,0,0,1,243,91.2a1,1,0,0,1,.06,1.41,1.07,1.07,0,0,1-.16.14l-6.71,7a1.27,1.27,0,0,1-.92.39,1.15,1.15,0,0,1-.93-.48,14.74,14.74,0,0,0-2.18-2,19.38,19.38,0,0,0-3-1.8,19.07,19.07,0,0,0-3.64-1.31,16.85,16.85,0,0,0-4-.49,12.81,12.81,0,0,0-4.42.73,10.8,10.8,0,0,0-3.35,1.9,8.58,8.58,0,0,0-2.14,2.72,7.32,7.32,0,0,0-.78,3.31,7,7,0,0,0,1.85,4.86,10,10,0,0,0,5.54,2.82l9.52,1.84A29,29,0,0,1,236,115a22.17,22.17,0,0,1,5.93,4.52,18.86,18.86,0,0,1,4.91,12.74,19.51,19.51,0,0,1-1.61,7.68,20.21,20.21,0,0,1-4.76,6.8,23.43,23.43,0,0,1-7.73,4.81,28.28,28.28,0,0,1-10.5,1.8,33.29,33.29,0,0,1-14.43-3.16,28.51,28.51,0,0,1-5.2-3.11,25.57,25.57,0,0,1-3.7-3.35,1.07,1.07,0,0,1,0-1.51h0l6.13-7.87a1.05,1.05,0,0,1,.82-.54,1.15,1.15,0,0,1,.93.35c.9.84,1.91,1.7,3,2.57a24.65,24.65,0,0,0,3.6,2.38,21.25,21.25,0,0,0,4.18,1.75,16,16,0,0,0,4.76.68c3.56,0,6.29-.77,8.17-2.33a7.45,7.45,0,0,0,2.82-6,7.16,7.16,0,0,0-2.09-5.1,11.26,11.26,0,0,0-6.18-3l-9.52-1.94a24.16,24.16,0,0,1-13-6.71A17.76,17.76,0,0,1,197.56,103.64Z" transform="translate(0 0)"/><path class="cls-2" d="M248.4,84.68a1.16,1.16,0,0,1,1.16-1.16h42.19A4,4,0,0,1,295,85.07l7.2,9.43a.8.8,0,0,1,.14.93.87.87,0,0,1-.82.43H279.8V150.4a1,1,0,0,1-.79,1.17,1.21,1.21,0,0,1-.38,0h-10a1,1,0,0,1-1.17-.79,1.21,1.21,0,0,1,0-.38V95.86H249.57a1.13,1.13,0,0,1-.83-.34,1.09,1.09,0,0,1-.34-.82Z" transform="translate(0 0)"/><path class="cls-2" d="M305.07,150.59V84.88a1.13,1.13,0,0,1,.34-.83,1.17,1.17,0,0,1,.83-.34h9.23a4,4,0,0,1,3.21,1.56l50.06,65.13a.86.86,0,0,1-.77,1.36H355.62a4,4,0,0,1-3.21-1.56l-16.81-22-16.92,22a4,4,0,0,1-3.21,1.56h-9.23a1.16,1.16,0,0,1-1.17-1.15h0Zm12.44-45.88v26.05l10-13Z" transform="translate(0 0)"/><path class="cls-2" d="M354.14,84.68a1.15,1.15,0,0,1,.34-.82,1.13,1.13,0,0,1,.83-.34H397.5a4,4,0,0,1,3.21,1.55l7.19,9.43a.79.79,0,0,1,.15.93.87.87,0,0,1-.83.43H385.54V150.4a1,1,0,0,1-.8,1.17h0a1.09,1.09,0,0,1-.36,0h-10a1,1,0,0,1-1.16-.81h0a1.09,1.09,0,0,1,0-.36V95.86H355.31a1.16,1.16,0,0,1-1.17-1.15h0Z" transform="translate(0 0)"/><path class="cls-2" d="M413.83,103.64a18.93,18.93,0,0,1,1.9-8.46,20.81,20.81,0,0,1,5.15-6.7,25.63,25.63,0,0,1,16.77-6.13A30.16,30.16,0,0,1,450.82,85a23.78,23.78,0,0,1,8.41,6.17,1,1,0,0,1,.06,1.41,1.07,1.07,0,0,1-.16.14l-6.71,7a1.27,1.27,0,0,1-.92.39,1.12,1.12,0,0,1-.92-.48,14.33,14.33,0,0,0-2.19-2,19,19,0,0,0-6.66-3.11,16.85,16.85,0,0,0-4-.49,12.81,12.81,0,0,0-4.42.73,10.8,10.8,0,0,0-3.35,1.9,8.58,8.58,0,0,0-2.14,2.72,7.32,7.32,0,0,0-.78,3.31,7,7,0,0,0,1.85,4.86,10,10,0,0,0,5.54,2.82l9.52,1.84a28.8,28.8,0,0,1,8.22,2.77,22.17,22.17,0,0,1,5.93,4.52,18.91,18.91,0,0,1,4.9,12.82,19.51,19.51,0,0,1-1.61,7.68,20.21,20.21,0,0,1-4.76,6.8,23.43,23.43,0,0,1-7.73,4.81,28.28,28.28,0,0,1-10.5,1.8,33.48,33.48,0,0,1-14.4-3.16,28.51,28.51,0,0,1-5.2-3.11,25.57,25.57,0,0,1-3.7-3.35,1.07,1.07,0,0,1-.05-1.51l.05-.05,6.13-7.87a1.05,1.05,0,0,1,.82-.54,1.15,1.15,0,0,1,.93.35c.91.84,1.91,1.7,3,2.57a24.65,24.65,0,0,0,3.6,2.38,21.25,21.25,0,0,0,4.18,1.75,16.31,16.31,0,0,0,4.76.68c3.56,0,6.29-.77,8.17-2.33a7.45,7.45,0,0,0,2.82-6,7.16,7.16,0,0,0-2.09-5.1,11.26,11.26,0,0,0-6.18-3l-9.52-1.94a24.16,24.16,0,0,1-13-6.71A17.72,17.72,0,0,1,413.83,103.64Z" transform="translate(0 0)"/><g id="F000000ff"><path class="cls-2" d="M176.22,0h2.23a32.5,32.5,0,1,1-25.3,10.62,33.16,33.16,0,0,1,3.16-3A32.72,32.72,0,0,1,176.25,0m-4.09,11.66c-8.69,2.08-15.29,10.29-15.81,19.16a21.66,21.66,0,0,0,11.46,20.84,20.5,20.5,0,0,0,22.34-2.46c7.76-6.22,10.08-18,5.41-26.75-4.11-8.4-14.32-13.25-23.43-10.79Z" transform="translate(0 0)"/><path class="cls-2" d="M0,1.9c3.47-.68,7-.34,10.54-.29,1-.16,1.06,1.18,1.08,1.86V44.93Q28.24,24.23,44.76,3.48c.76-.9,1.64-2,3-1.89,4.29-.14,8.59-.07,12.89,0-.94,2.22-2.63,3.94-4.1,5.8Q34.86,34.51,13.21,61.6c-.72.8-1.5,1.81-2.7,1.76-3.5.19-7,.08-10.51-.08Z" transform="translate(0 0)"/><path class="cls-2" d="M76.21,6.12c1.5-1.92,3.13-4.27,5.8-4.48a74.07,74.07,0,0,1,8.94,0c.94.5.59,1.68.69,2.53V56.09a45.16,45.16,0,0,1-.25,7.26c-3.35.09-6.69.13-10,0a3.44,3.44,0,0,1-2.83-1.68C73.25,55,68,48.38,62.63,41.77q-7.91,9.87-15.78,19.75c-.69.8-1.44,1.82-2.63,1.8-4.3.17-8.61,0-12.92,0-.12-1.12.79-1.9,1.37-2.74Q54.51,33.34,76.26,6.05M69.09,32.4q5.46,6.85,11,13.71V18.75c-3.78,4.59-7.39,9.18-11,13.72Z" transform="translate(0 0)"/><path class="cls-2" d="M105.57,4.25c.14-.88-.37-2.54,1-2.64,3.53,0,7.22-.56,10.66.38v50.4c8.94.07,17.89-.14,26.82.12-1.16,2.72-3.48,4.69-5.14,7.08-1.39,1.55-2.51,4.06-5,3.82-9.4-.07-18.81.21-28.2-.14C105.38,43.6,105.69,23.92,105.57,4.25Z" transform="translate(0 0)"/><path class="cls-2" d="M220,5c.11-1.21-.47-3.57,1.48-3.39,15.46-.06,30.94,0,46.4,0,.79-.05,2.24.11,2,1.26,0,4.61.28,9.27-.17,13.84C265,23.3,259.57,29.43,254.59,35.87c6.63,8.28,13.22,16.59,19.88,24.84a5,5,0,0,1,1.4,2.69c-4.31.06-8.61.13-12.92,0-1.58,0-2.41-1.58-3.34-2.61-6.52-8.4-13.44-16.49-19.76-25,6.09-7.77,12.33-15.42,18.44-23.16H231.64c-.1,16.89.18,33.79-.14,50.67a76.79,76.79,0,0,1-11.35,0C219.81,43.82,220.13,24.39,220,5Z" transform="translate(0 0)"/><path class="cls-2" d="M285.54,3.45c-.09-.78.16-2.07,1.22-1.87a81,81,0,0,1,10.1.16c1.68.85,2.57,2.66,3.79,4l43.59,54.52c.69,1,1.71,1.83,1.68,3.11-4.27,0-8.56.12-12.83,0-1.2.06-2-.94-2.7-1.77-5.25-6.61-10.54-13.2-15.81-19.8-5.33,6.6-10.61,13.26-15.9,19.89-.71.85-1.6,1.79-2.81,1.7-3.06.07-6.13.09-9.18,0-1.35.19-1.1-1.53-1.16-2.34V3.47m11.61,15.34V46.19c3.68-4.55,7.32-9.13,11-13.7-3.7-4.56-7.3-9.17-11-13.7Z" transform="translate(0 0)"/><path class="cls-2" d="M337.18,2c1.66-1,3.84-.28,5.71-.5,2.29.25,5.28-.8,6.92,1.33q16.88,21,33.66,42.09c.08-14.28-.16-28.57.11-42.83l.75-.5c3.21-.15,6.45-.14,9.67,0,1.45,0,1,1.74,1.1,2.64-.12,19.67.19,39.35-.14,59-3.33.3-6.68.18-10,.16a3.43,3.43,0,0,1-3-1.64Q365.31,40.89,348.67,20c-.09,8.61.14,17.22-.12,25.81a4.07,4.07,0,0,1-2.24-1.64c-2.76-3.56-5.64-7-8.42-10.59-1.19-1.34-.85-3.22-.92-4.87C337.15,19.82,336.81,10.91,337.18,2Z" transform="translate(0 0)"/><path class="cls-2" d="M403.31,2.2c.62-.81,1.77-.52,2.65-.63h34.37c1.75.16,3.88-.44,5.36.79,2.61,2.82,4.87,6,7.28,9v1.28H432.21c-.07,16.91.21,33.82-.08,50.73a94.43,94.43,0,0,1-11.41,0c-.2-16.89-.06-33.79-.14-50.69-5.55-.1-11.11.18-16.64-.11-.16-.16-.48-.47-.63-.64A68.69,68.69,0,0,1,403.31,2.2Z" transform="translate(0 0)"/></g><polygon class="cls-2" points="135.74 86.08 135.74 89.73 142.27 89.73 104.79 127.21 86.59 108.99 63.45 132.12 66.01 134.7 86.59 114.15 104.79 132.35 144.85 92.3 144.85 98.81 148.5 98.81 148.5 86.08 135.74 86.08"/></svg>